#N canvas 506 33 463 564 10;
#X obj 158 332 *~;
#X msg 297 265 \$1 5;
#X obj 158 127 noise~;
#X obj 297 286 vline~;
#X obj 158 226 lop~ 100;
#X obj 158 246 lop~ 100;
#X obj 158 266 lop~ 100;
#X obj 158 286 lop~ 100;
#X obj 158 358 +~;
#X obj 87 59 delwrite~ \$0-delay1 1000;
#X obj 108 37 delwrite~ \$0-delay2 1000;
#X obj 58 332 *~;
#X obj 58 127 noise~;
#X obj 58 226 lop~ 100;
#X obj 58 246 lop~ 100;
#X obj 58 266 lop~ 100;
#X obj 58 286 lop~ 100;
#X obj 58 358 +~;
#X obj 58 378 vd~ \$0-delay1;
#X obj 158 378 vd~ \$0-delay2;
#X obj 297 217 *;
#X obj 297 242 * 500;
#X obj 223 164 *;
#X floatatom 300 183 5 0 1 0 - - - 0;
#X obj 223 186 * 500;
#X floatatom 231 141 5 0 1 0 - - - 0;
#X obj 87 14 adc~;
#X obj 114 410 dac~;
#X floatatom 247 213 5 0 0 0 - - - 0;
#X text 21 441 ANGEL FARLDO 2009;
#X connect 0 0 8 0;
#X connect 1 0 3 0;
#X connect 2 0 4 0;
#X connect 3 0 0 1;
#X connect 3 0 8 1;
#X connect 3 0 11 1;
#X connect 3 0 17 1;
#X connect 4 0 5 0;
#X connect 5 0 6 0;
#X connect 6 0 7 0;
#X connect 7 0 0 0;
#X connect 8 0 19 0;
#X connect 11 0 17 0;
#X connect 12 0 13 0;
#X connect 13 0 14 0;
#X connect 14 0 15 0;
#X connect 15 0 16 0;
#X connect 16 0 11 0;
#X connect 17 0 18 0;
#X connect 18 0 27 0;
#X connect 19 0 27 1;
#X connect 20 0 21 0;
#X connect 21 0 1 0;
#X connect 22 0 24 0;
#X connect 23 0 20 1;
#X connect 23 0 20 0;
#X connect 24 0 7 1;
#X connect 24 0 6 1;
#X connect 24 0 5 1;
#X connect 24 0 4 1;
#X connect 24 0 13 1;
#X connect 24 0 14 1;
#X connect 24 0 15 1;
#X connect 24 0 16 1;
#X connect 24 0 28 0;
#X connect 25 0 22 1;
#X connect 25 0 22 0;
#X connect 26 0 9 0;
#X connect 26 1 10 0;
