#N canvas 177 118 391 365 10;
#X obj 28 164 *~;
#X obj 64 143 line~;
#X msg 64 121 \$1 20;
#X obj 28 223 clip~ -1 1;
#X text 64 59 dist-factor;
#X floatatom 187 122 5 0 0 0 - - - 0;
#X text 187 61 dist-volume;
#X obj 58 193 * -1;
#X obj 29 246 outlet~;
#X obj 65 78 inlet;
#X obj 65 99 clip 0 100;
#X obj 27 30 inlet~;
#X text 28 12 input;
#X obj 187 77 inlet;
#X obj 187 98 clip 0 1;
#X connect 0 0 3 0;
#X connect 1 0 0 1;
#X connect 2 0 1 0;
#X connect 3 0 8 0;
#X connect 5 0 3 2;
#X connect 5 0 7 0;
#X connect 7 0 3 1;
#X connect 9 0 10 0;
#X connect 10 0 2 0;
#X connect 11 0 0 0;
#X connect 13 0 14 0;
#X connect 14 0 5 0;
