#N canvas 993 278 285 232 10;
#X obj 12 2 inlet~;
#X obj 11 187 outlet~;
#X obj 25 61 moses \$1;
#X msg 25 89 bang;
#X msg 97 90 bang;
#X obj 97 111 pack 1 \$2;
#X obj 25 111 pack 0 \$3;
#X obj 25 142 line~;
#X obj 11 166 *~;
#X obj 25 28 env~;
#X text 91 8 \$1 thresold \; \$2 fade in \; \$3 fade out;
#X connect 0 0 8 0;
#X connect 0 0 9 0;
#X connect 2 0 3 0;
#X connect 2 1 4 0;
#X connect 3 0 6 0;
#X connect 4 0 5 0;
#X connect 5 0 7 0;
#X connect 6 0 7 0;
#X connect 7 0 8 1;
#X connect 8 0 1 0;
#X connect 9 0 2 0;
