#N canvas 673 189 623 559 10;
#X obj 168 370 tabread4~ tabla-\$0;
#X obj 204 95 tabwrite~ tabla-\$0;
#X obj 293 341 table tabla-\$0 100;
#X obj 292 320 s tabla-\$0;
#X msg 292 298 resize \$1;
#X obj 307 231 samplerate~;
#X obj 329 71 loadbang;
#X obj 292 253 *;
#X obj 189 323 r duration-\$0;
#X obj 299 276 s duration-\$0;
#X obj 168 346 *~ 0;
#X obj 249 19 inlet;
#X obj 204 19 inlet~;
#X obj 153 420 outlet~;
#X obj 292 133 f \$1;
#X obj 213 184 * \$2;
#X obj 329 94 t b b;
#X obj 332 39 inlet;
#X obj 212 135 t b f;
#X obj 213 208 * 1000;
#X obj 168 302 line~;
#X obj 153 394 *~;
#X obj 69 332 vline~;
#X obj 82 281 delay;
#X msg 50 281 1 5;
#X obj 109 259 - 5;
#X msg 82 303 0 5;
#X obj 139 66 t b b b b;
#X msg 137 260 0;
#X obj 219 288 print;
#X obj 168 260 pack 1 0;
#X obj 292 19 inlet duration;
#X floatatom 227 239 0 0 0 0 - - -;
#X connect 0 0 21 1;
#X connect 4 0 3 0;
#X connect 5 0 7 1;
#X connect 6 0 16 0;
#X connect 7 0 4 0;
#X connect 7 0 9 0;
#X connect 8 0 10 1;
#X connect 10 0 0 0;
#X connect 11 0 27 0;
#X connect 12 0 1 0;
#X connect 14 0 7 0;
#X connect 14 0 15 0;
#X connect 15 0 19 0;
#X connect 16 0 14 0;
#X connect 16 1 5 0;
#X connect 17 0 18 0;
#X connect 18 0 15 0;
#X connect 18 1 15 1;
#X connect 19 0 25 0;
#X connect 19 0 30 1;
#X connect 19 0 32 0;
#X connect 20 0 10 0;
#X connect 21 0 13 0;
#X connect 22 0 21 0;
#X connect 23 0 26 0;
#X connect 24 0 22 0;
#X connect 25 0 23 1;
#X connect 26 0 22 0;
#X connect 27 0 24 0;
#X connect 27 0 23 0;
#X connect 27 1 30 0;
#X connect 27 2 28 0;
#X connect 27 3 1 0;
#X connect 28 0 20 0;
#X connect 30 0 20 0;
#X connect 30 0 29 0;
#X connect 31 0 14 0;
