#N canvas 0 23 371 221 10;
#X obj 97 21 cnv 15 150 25 empty empty empty 20 12 0 14 -261234 -66577
0;
#X obj 99 74 cnv 15 220 25 empty empty empty 20 12 0 14 -261234 -66577
0;
#X obj 13 174 cnv 15 220 25 empty empty empty 20 12 0 14 -162280 -66577
0;
#N canvas 131 515 311 222 delay-line 0;
#X obj 75 183 outlet~;
#X obj 75 5 inlet;
#X obj -81 10 inlet~;
#X obj -81 161 +~;
#X obj 75 28 delread~ \$0-delay 10;
#X obj -81 183 delwrite~ \$0-delay 300;
#X obj 75 54 lop~ 10000;
#X obj 75 109 *~ 0.99;
#X obj 114 85 r fdb-reson;
#X connect 1 0 4 0;
#X connect 2 0 3 0;
#X connect 3 0 5 0;
#X connect 4 0 6 0;
#X connect 6 0 7 0;
#X connect 7 0 0 0;
#X connect 7 0 3 1;
#X connect 8 0 7 1;
#X restore 29 147 pd delay-line;
#X obj 19 178 dac~;
#X obj 29 18 adc~;
#X msg 104 102 1000 \$1;
#X floatatom 104 79 5 0 0 0 - - -;
#X obj 104 124 /;
#X text 143 79 frequency of resonance (Hz);
#X obj 101 49 s fdb-reson;
#X floatatom 101 26 5 0 0 0 - - -;
#X text 139 25 feedback (0-1);
#X text 52 179 angelfaraldo@gmail.com - 2012;
#X connect 3 0 4 0;
#X connect 3 0 4 1;
#X connect 5 0 3 0;
#X connect 6 0 8 0;
#X connect 7 0 6 0;
#X connect 8 0 3 1;
#X connect 11 0 10 0;
